<svg width="210mm" height="297mm" version="1.1" viewBox="0 0 210 297" xmlns="http://www.w3.org/2000/svg">
 <g fill="#37abc8" fill-rule="evenodd">
  <path d="m100.92 119.7c-0.59343 4e-5 -1.0745 0.4811-1.0745 1.0745 3.5e-5 0.59343 0.4811 1.0745 1.0745 1.0745 0.59342-3e-5 1.0745-0.48109 1.0745-1.0745-4e-5 -0.59342-0.4811-1.0745-1.0745-1.0745zm0.0109 0.0515c0.0824 1e-3 0.16444 0.0124 0.24421 0.0333v0.0633c0.0765 0.0208 0.15016 0.051 0.21927 0.0899l0.0446-0.0441c0.0707 0.0415 0.13609 0.0915 0.19485 0.14861l0.0312 0.0312c0.0518 0.0554 0.0973 0.11639 0.13562 0.18185l-0.0452 0.0446c0.0395 0.0689 0.0705 0.14231 0.092 0.21874h0.0628c0.0179 0.0694 0.0285 0.14041 0.0317 0.21199v0.0743c-2e-3 0.0759-0.0132 0.15141-0.0322 0.22498h-0.0635c-0.021 0.0765-0.0514 0.15019-0.0904 0.21926l0.0441 0.0441c-0.0442 0.0757-0.098 0.14535-0.16003 0.20732l-0.011 0.011c-0.0579 0.0553-0.12207 0.1036-0.19121 0.14393l-0.0441-0.0441c-0.0689 0.0394-0.14235 0.0701-0.21875 0.0915v0.0618c-0.0832 0.0215-0.1687 0.0326-0.2546 0.0328-0.0869-2.7e-4 -0.17324-0.0117-0.2572-0.0338v-0.0613c-0.0765-0.021-0.15019-0.0514-0.21926-0.0904l-0.0426 0.0426c-0.14929-0.0882-0.27373-0.21275-0.36164-0.36216l0.0431-0.0426c-0.0394-0.0689-0.0701-0.14235-0.09139-0.21875h-0.06028c-0.02203-0.0837-0.03338-0.1697-0.03377-0.25617 5.32e-4 -0.0863 0.01178-0.17218 0.03377-0.25563h0.06131c0.02102-0.0763 0.05138-0.14983 0.09039-0.21875l-0.0436-0.0436c0.0879-0.14916 0.21209-0.27359 0.36112-0.36164l0.0441 0.0436c0.0689-0.0394 0.14235-0.0701 0.21875-0.0915v-0.0618c0.0792-0.0209 0.16071-0.0323 0.24265-0.0338z" style="paint-order:stroke fill markers"/>
  <path d="m100.91 119.77a1.0075 1.0075 0 0 0-0.23907 0.033v0.0609a0.94784 0.94784 0 0 0-0.21546 0.0901l-0.0434-0.0433a1.0075 1.0075 0 0 0-0.35567 0.35664l0.0429 0.0429a0.94784 0.94784 0 0 0-0.0891 0.21547h-0.0605a1.0075 1.0075 0 0 0-0.03296 0.25138 1.0075 1.0075 0 0 0 0.03296 0.25237h0.05952a0.94784 0.94784 0 0 0 0.0901 0.21545l-0.0424 0.0424a1.0075 1.0075 0 0 0 0.35567 0.35666l0.0423-0.0424a0.94784 0.94784 0 0 0 0.21596 0.0891v0.0605a1.0075 1.0075 0 0 0 0.25334 0.0334 1.0075 1.0075 0 0 0 0.2504-0.0325v-0.0605a0.94784 0.94784 0 0 0 0.21546-0.0906l0.0437 0.0438a1.0075 1.0075 0 0 0 0.18842-0.14168l4e-3 -3e-3a1.0075 1.0075 0 0 0 6e-3 -7e-3 1.0075 1.0075 0 0 0 0.15792-0.20415l-0.0437-0.0434a0.94784 0.94784 0 0 0 0.0891-0.21596h0.0624a1.0075 1.0075 0 0 0 0.032-0.22186v-0.0733a1.0075 1.0075 0 0 0-0.0315-0.20859h-0.0619a0.94784 0.94784 0 0 0-0.0905-0.21546l0.0447-0.0442a1.0075 1.0075 0 0 0-0.1338-0.17906l-0.0305-0.0305a1.0075 1.0075 0 0 0-0.19186-0.1466l-0.0442 0.0438a0.94784 0.94784 0 0 0-0.21596-0.0886v-0.0624a1.0075 1.0075 0 0 0-0.24056-0.0325zm0.0142 0.0728a0.93433 0.93433 0 0 1 0.93417 0.93417 0.93433 0.93433 0 0 1-0.93417 0.93418 0.93433 0.93433 0 0 1-0.93417-0.93418 0.93433 0.93433 0 0 1 0.93417-0.93417z" style="paint-order:stroke fill markers"/>
 </g>
</svg>
